<?xml version="1.0" encoding="UTF-8"?><svg id="a" xmlns="http://www.w3.org/2000/svg" width="80" height="80" viewBox="0 0 80 80">
<title>Higgsfield_AI-logo - brandlogos.net</title><rect width="80" height="80" rx="16" ry="16" style="fill:#d1fe17;"/><path d="M64.2786,39.6003l-.0463-.506c-.4384-4.856-3.5987-13.9923-12.3646-13.9923-6.505,0-11.419,6.4209-15.7557,12.0818-3.4605,4.5335-6.4587,8.4225-9.7578,8.4225-.8769-.0917-2.007-.5291-2.6987-1.5186-.6229-.8979-.7843-2.0484-.4616-3.4292.5072-2.1863,3.4142-4.2115,6.4819-6.3747,1.6836-1.1505,3.4142-2.3703,4.6137-3.5439,3.4605-3.3368,5.2136-5.7533,5.2136-9.6423s-2.1452-5.8225-3.9446-6.6511c-3.5987-1.6565-8.881-.6901-12.2489,2.21-.5072.4605-1.015.8972-1.4766,1.3115-3.391,3.0148-5.6744,5.0632-10.9111,3.4977v6.3055c6.9434,3.061,12.7799-2.7846,14.9945-5.4769,1.7068-1.772,3.5061-2.8077,4.8445-2.8077h.0695c.5998.0231,1.107.2533,1.4766.6676.5998.6907.8306,1.4962.7149,2.3934-.254,1.8875-2.2147,4.0961-5.8134,6.5126-4.2216,2.8308-11.2801,7.5715-11.8342,13.5319-.4153,4.2808,1.7993,8.561,5.2598,10.2175,8.0736,3.8204,12.9875-2.7615,18.2004-9.7115,3.9908-5.3621,7.774-10.4477,13.0339-10.4477,4.7288,0,6.4818,3.912,6.4818,6.3747v.4835l-.4615.0917c-11.4647,2.0253-17.7164,12.7495-17.7164,17.6973s4.1985,9.1824,9.3657,9.1824c6.0441,0,13.5179-5.1549,14.7175-19.6533l.0462-.529h4.7752v-6.6967h-4.7983v-.0007ZM58.0269,47.0332c-.9225,8.6758-5.3749,12.7264-8.0736,12.7264-1.2227,0-2.9295-1.0127-2.9295-2.8994,0-2.117,3.1603-8.5379,10.2651-10.4477l.8305-.2072-.0925.8286v-.0007Z" style="fill:#131313;"/></svg>